<svg width="17" height="20" viewBox="0 0 17 20" fill="none" xmlns="http://www.w3.org/2000/svg">
<path fill-rule="evenodd" clip-rule="evenodd" d="M10.6856 3.33287C10.6857 2.55413 10.9441 1.79999 11.4158 1.20135C11.8876 0.602709 12.543 0.197359 13.2683 0.0556538C13.9936 -0.0860509 14.743 0.0448352 15.3865 0.425595C16.0299 0.806354 16.5268 1.41295 16.7908 2.1401C17.0548 2.86725 17.0694 3.66904 16.8319 4.40632C16.5944 5.1436 16.1199 5.76983 15.4907 6.1763C14.8616 6.58277 14.1174 6.74382 13.3875 6.63152C12.6576 6.51921 11.988 6.14063 11.4949 5.56149L8.85546 7.08142L5.90228 8.86287C6.31515 9.63007 6.42343 10.5387 6.20343 11.3899L11.4949 14.437C12.0125 13.8297 12.7234 13.4444 13.4925 13.3541C14.2616 13.2638 15.0354 13.4748 15.6668 13.9471C16.2982 14.4195 16.7433 15.1202 16.9176 15.9162C17.0919 16.7122 16.9832 17.548 16.6121 18.2649C16.2411 18.9819 15.6336 19.53 14.905 19.8052C14.1764 20.0804 13.3774 20.0635 12.6598 19.7577C11.9422 19.4519 11.356 18.8785 11.0125 18.1465C10.6689 17.4144 10.592 16.5746 10.7964 15.7867L5.50496 12.7406C5.10169 13.2142 4.57838 13.5559 3.99694 13.7252C3.4155 13.8946 2.80027 13.8846 2.22405 13.6964C1.64783 13.5082 1.13474 13.1497 0.745479 12.6632C0.35622 12.1768 0.107088 11.5828 0.0275633 10.9516C-0.0519616 10.3204 0.0414483 9.67828 0.29674 9.10134C0.552032 8.5244 0.958522 8.03674 1.46811 7.69606C1.9777 7.35538 2.56906 7.17595 3.17222 7.17898C3.77538 7.18201 4.36509 7.36739 4.87158 7.71318L8.14533 5.73789L10.7964 4.21078C10.7227 3.92464 10.6855 3.6294 10.6856 3.33287ZM13.8428 1.53809C13.3919 1.53809 12.9595 1.72718 12.6407 2.06377C12.3219 2.40035 12.1428 2.85687 12.1428 3.33287C12.1428 3.80888 12.3219 4.26539 12.6407 4.60198C12.9595 4.93857 13.3919 5.12766 13.8428 5.12766C14.2937 5.12766 14.7261 4.93857 15.0449 4.60198C15.3637 4.26539 15.5428 3.80888 15.5428 3.33287C15.5428 2.85687 15.3637 2.40035 15.0449 2.06377C14.7261 1.72718 14.2937 1.53809 13.8428 1.53809ZM3.15699 8.71724C2.70612 8.71724 2.27372 8.90633 1.9549 9.24292C1.63608 9.57951 1.45698 10.036 1.45698 10.512C1.45698 10.988 1.63608 11.4445 1.9549 11.7811C2.27372 12.1177 2.70612 12.3068 3.15699 12.3068C3.60787 12.3068 4.04027 12.1177 4.35909 11.7811C4.6779 11.4445 4.85701 10.988 4.85701 10.512C4.85701 10.036 4.6779 9.57951 4.35909 9.24292C4.04027 8.90633 3.60787 8.71724 3.15699 8.71724ZM12.1428 16.6656C12.1428 16.1896 12.3219 15.7331 12.6407 15.3965C12.9595 15.0599 13.3919 14.8708 13.8428 14.8708C14.2937 14.8708 14.7261 15.0599 15.0449 15.3965C15.3637 15.7331 15.5428 16.1896 15.5428 16.6656C15.5428 17.1416 15.3637 17.5981 15.0449 17.9347C14.7261 18.2713 14.2937 18.4604 13.8428 18.4604C13.3919 18.4604 12.9595 18.2713 12.6407 17.9347C12.3219 17.5981 12.1428 17.1416 12.1428 16.6656Z" fill="white"/>
</svg>
