<svg width="11" height="10" viewBox="0 0 11 10" fill="none" xmlns="http://www.w3.org/2000/svg">
<path fill-rule="evenodd" clip-rule="evenodd" d="M3.37887 0.418457C3.46968 0.418457 3.55676 0.453389 3.62097 0.515569C3.68518 0.577749 3.72125 0.662083 3.72125 0.750018V1.08733C4.02346 1.08158 4.35626 1.08158 4.72238 1.08158H6.60001C6.96658 1.08158 7.29938 1.08158 7.60159 1.08733V0.750018C7.60159 0.662083 7.63766 0.577749 7.70187 0.515569C7.76608 0.453389 7.85317 0.418457 7.94397 0.418457C8.03478 0.418457 8.12187 0.453389 8.18607 0.515569C8.25028 0.577749 8.28636 0.662083 8.28636 0.750018V1.11562C8.40505 1.12446 8.51735 1.13551 8.62372 1.14922C9.15875 1.21907 9.59197 1.36584 9.9339 1.69651C10.2754 2.02763 10.4269 2.44717 10.4991 2.96529C10.5689 3.46926 10.5689 4.11249 10.5689 4.92504V5.85871C10.5689 6.67126 10.5689 7.31493 10.4991 7.81846C10.4269 8.33658 10.2754 8.75611 9.9339 9.08723C9.59197 9.41791 9.15875 9.56468 8.62372 9.63453C8.1033 9.70217 7.43907 9.70217 6.60001 9.70217H4.72329C3.88423 9.70217 3.21955 9.70217 2.69958 9.63453C2.16455 9.56468 1.73133 9.41791 1.3894 9.08723C1.04793 8.75611 0.896369 8.33658 0.824241 7.81846C0.754395 7.31449 0.754395 6.67126 0.754395 5.85871V4.92504C0.754395 4.11249 0.754395 3.46882 0.824241 2.96529C0.896369 2.44717 1.04793 2.02763 1.3894 1.69651C1.73133 1.36584 2.16455 1.21907 2.69958 1.14922C2.80595 1.13551 2.91871 1.12446 3.03695 1.11562V0.750018C3.03695 0.662159 3.07296 0.577892 3.13707 0.515725C3.20118 0.453558 3.28815 0.418574 3.37887 0.418457ZM2.78997 1.80659C2.33118 1.86627 2.0664 1.97856 1.8733 2.16556C1.6802 2.35256 1.56424 2.60897 1.50261 3.0537C1.49211 3.12886 1.48344 3.20843 1.47614 3.29199H9.84671C9.8394 3.20799 9.83073 3.12886 9.82023 3.05326C9.7586 2.60897 9.64265 2.35256 9.44954 2.16556C9.25644 1.97856 8.99166 1.86627 8.53241 1.80659C8.06358 1.74559 7.44501 1.7447 6.57444 1.7447H4.7484C3.87784 1.7447 3.25972 1.74559 2.78997 1.80659ZM1.4387 4.94979C1.4387 4.57225 1.4387 4.24379 1.44464 3.95511H9.87821C9.88414 4.24379 9.88414 4.57225 9.88414 4.94979V5.83395C9.88414 6.677 9.88323 7.27602 9.82023 7.73048C9.7586 8.17478 9.64265 8.43118 9.44954 8.61818C9.25644 8.80518 8.99166 8.91747 8.53241 8.97715C8.06358 9.03816 7.44501 9.03905 6.57444 9.03905H4.7484C3.87784 9.03905 3.25972 9.03816 2.78997 8.97715C2.33118 8.91747 2.0664 8.80518 1.8733 8.61818C1.6802 8.43118 1.56424 8.17478 1.50261 7.73004C1.43962 7.27602 1.4387 6.677 1.4387 5.83395V4.94979Z" fill="#1D1A1A"/>
<path d="M7.94398 5.83387C8.06505 5.83387 8.18117 5.78729 8.26678 5.70439C8.35239 5.62148 8.40049 5.50904 8.40049 5.39179C8.40049 5.27454 8.35239 5.1621 8.26678 5.07919C8.18117 4.99628 8.06505 4.94971 7.94398 4.94971C7.8229 4.94971 7.70679 4.99628 7.62117 5.07919C7.53556 5.1621 7.48747 5.27454 7.48747 5.39179C7.48747 5.50904 7.53556 5.62148 7.62117 5.70439C7.70679 5.78729 7.8229 5.83387 7.94398 5.83387ZM7.94398 7.6022C8.06505 7.6022 8.18117 7.55562 8.26678 7.47271C8.35239 7.38981 8.40049 7.27736 8.40049 7.16011C8.40049 7.04287 8.35239 6.93042 8.26678 6.84752C8.18117 6.76461 8.06505 6.71803 7.94398 6.71803C7.8229 6.71803 7.70679 6.76461 7.62117 6.84752C7.53556 6.93042 7.48747 7.04287 7.48747 7.16011C7.48747 7.27736 7.53556 7.38981 7.62117 7.47271C7.70679 7.55562 7.8229 7.6022 7.94398 7.6022ZM6.11793 5.39179C6.11793 5.50904 6.06984 5.62148 5.98423 5.70439C5.89861 5.78729 5.7825 5.83387 5.66142 5.83387C5.54035 5.83387 5.42424 5.78729 5.33862 5.70439C5.25301 5.62148 5.20491 5.50904 5.20491 5.39179C5.20491 5.27454 5.25301 5.1621 5.33862 5.07919C5.42424 4.99628 5.54035 4.94971 5.66142 4.94971C5.7825 4.94971 5.89861 4.99628 5.98423 5.07919C6.06984 5.1621 6.11793 5.27454 6.11793 5.39179ZM6.11793 7.16011C6.11793 7.27736 6.06984 7.38981 5.98423 7.47271C5.89861 7.55562 5.7825 7.6022 5.66142 7.6022C5.54035 7.6022 5.42424 7.55562 5.33862 7.47271C5.25301 7.38981 5.20491 7.27736 5.20491 7.16011C5.20491 7.04287 5.25301 6.93042 5.33862 6.84752C5.42424 6.76461 5.54035 6.71803 5.66142 6.71803C5.7825 6.71803 5.89861 6.76461 5.98423 6.84752C6.06984 6.93042 6.11793 7.04287 6.11793 7.16011ZM3.37887 5.83387C3.49995 5.83387 3.61606 5.78729 3.70167 5.70439C3.78729 5.62148 3.83538 5.50904 3.83538 5.39179C3.83538 5.27454 3.78729 5.1621 3.70167 5.07919C3.61606 4.99628 3.49995 4.94971 3.37887 4.94971C3.2578 4.94971 3.14168 4.99628 3.05607 5.07919C2.97046 5.1621 2.92236 5.27454 2.92236 5.39179C2.92236 5.50904 2.97046 5.62148 3.05607 5.70439C3.14168 5.78729 3.2578 5.83387 3.37887 5.83387ZM3.37887 7.6022C3.49995 7.6022 3.61606 7.55562 3.70167 7.47271C3.78729 7.38981 3.83538 7.27736 3.83538 7.16011C3.83538 7.04287 3.78729 6.93042 3.70167 6.84752C3.61606 6.76461 3.49995 6.71803 3.37887 6.71803C3.2578 6.71803 3.14168 6.76461 3.05607 6.84752C2.97046 6.93042 2.92236 7.04287 2.92236 7.16011C2.92236 7.27736 2.97046 7.38981 3.05607 7.47271C3.14168 7.55562 3.2578 7.6022 3.37887 7.6022Z" fill="#1D1A1A"/>
</svg>
