<svg width="12" height="13" viewBox="0 0 12 13" fill="none" xmlns="http://www.w3.org/2000/svg">
<path d="M10.4894 2.19822C10.169 1.89868 9.74785 1.71479 9.29904 1.6785C8.85023 1.64221 8.40217 1.75582 8.03271 1.99957C9.22031 2.46729 10.1905 3.32342 10.766 4.41166C10.9882 4.06658 11.0817 3.66102 11.0316 3.25977C10.9814 2.85853 10.7905 2.48477 10.4894 2.19822Z" fill="#1D1A1A"/>
<path d="M3.806 2.06897C3.43808 1.79257 2.97592 1.65312 2.50676 1.67693C2.03759 1.70075 1.59387 1.88619 1.25933 2.19825C0.92756 2.51416 0.731064 2.935 0.707678 3.37974C0.684292 3.82449 0.835671 4.26169 1.13267 4.60718C1.66751 3.48155 2.61802 2.57909 3.806 2.06897Z" fill="#1D1A1A"/>
<path d="M5.46602 2.27682C4.59573 2.37299 3.77164 2.69897 3.08806 3.21748C2.40448 3.73598 1.88904 4.42606 1.60071 5.20872C1.31239 5.99139 1.26283 6.83502 1.45771 7.64309C1.6526 8.45115 2.08404 9.19099 2.70268 9.77794L1.85268 10.582C1.82182 10.6118 1.79747 10.647 1.78102 10.6858C1.76457 10.7245 1.75634 10.7659 1.75681 10.8076C1.75727 10.8493 1.76642 10.8905 1.78373 10.9289C1.80104 10.9673 1.82617 11.0021 1.85768 11.0313C1.8892 11.0605 1.92649 11.0835 1.96742 11.0991C2.00835 11.1146 2.05211 11.1224 2.09622 11.122C2.14033 11.1215 2.18391 11.1129 2.22449 11.0965C2.26506 11.0801 2.30182 11.0564 2.33268 11.0265L3.21935 10.1878C4.03019 10.7682 5.02037 11.0802 6.0372 11.0757C7.05402 11.0711 8.04103 10.7503 8.84602 10.1626L9.75935 11.0265C9.82312 11.0782 9.90514 11.1052 9.98904 11.1021C10.0729 11.0991 10.1525 11.0662 10.2119 11.01C10.2712 10.9539 10.306 10.8786 10.3093 10.7992C10.3125 10.7199 10.284 10.6423 10.2294 10.582L9.33268 9.74641C10.0056 9.09442 10.4487 8.26145 10.6012 7.36179C10.7537 6.46214 10.6082 5.53988 10.1846 4.72156C9.76098 3.90324 9.08005 3.22897 8.23523 2.79126C7.39041 2.35355 6.4231 2.17385 5.46602 2.27682ZM6.52602 10.4149C5.69755 10.5175 4.8559 10.3722 4.11921 9.99923C3.38252 9.62631 2.78778 9.04454 2.41848 8.33557C2.04917 7.6266 1.92385 6.82604 2.06009 6.04626C2.19634 5.26648 2.58731 4.54664 3.17813 3.98777C3.76895 3.42891 4.52995 3.05908 5.35432 2.9302C6.17868 2.80133 7.02501 2.91987 7.77452 3.2692C8.52402 3.61853 9.13906 4.18111 9.5333 4.87795C9.92754 5.5748 10.0812 6.37093 9.97268 7.15459C9.85822 7.98131 9.45827 8.74911 8.83499 9.33868C8.21171 9.92825 7.4 10.3066 6.52602 10.4149Z" fill="#1D1A1A"/>
<path d="M8.30604 7.40042L6.28604 6.4545V3.98251C6.28604 3.90724 6.25443 3.83506 6.19817 3.78185C6.14191 3.72863 6.0656 3.69873 5.98604 3.69873C5.90647 3.69873 5.83016 3.72863 5.7739 3.78185C5.71764 3.83506 5.68604 3.90724 5.68604 3.98251V6.82026L8.03937 7.92382C8.11098 7.95686 8.19352 7.96163 8.26885 7.93709C8.34418 7.91255 8.40612 7.86071 8.44104 7.79297C8.47596 7.72524 8.481 7.64715 8.45506 7.5759C8.42911 7.50465 8.37431 7.44606 8.3027 7.41303L8.30604 7.40042Z" fill="#1D1A1A"/>
</svg>
