<svg width="18" height="15" viewBox="0 0 18 15" fill="none" xmlns="http://www.w3.org/2000/svg">
<path d="M10.1729 11.9645C10.2686 12.0481 10.3445 12.1474 10.3963 12.2568C10.4481 12.3662 10.4747 12.4835 10.4747 12.6019C10.4747 12.7203 10.4481 12.8376 10.3963 12.947C10.3445 13.0564 10.2686 13.1557 10.1729 13.2393L9.665 13.6848C8.70253 14.5288 7.39714 15.003 6.036 15.003C4.67486 15.003 3.36946 14.5288 2.40699 13.6848C1.44452 12.8407 0.903809 11.6959 0.903809 10.5022C0.903809 9.30853 1.44452 8.16374 2.40699 7.31968L4.46947 5.51169C5.39424 4.69869 6.63848 4.22655 7.94732 4.19197C9.25616 4.1574 10.5305 4.56301 11.5094 5.32572C11.6105 5.4045 11.6929 5.49997 11.7519 5.60667C11.8109 5.71337 11.8453 5.82922 11.8533 5.9476C11.8612 6.06597 11.8425 6.18456 11.7981 6.2966C11.7538 6.40863 11.6848 6.51191 11.5949 6.60053C11.5051 6.68916 11.3963 6.76141 11.2746 6.81314C11.1529 6.86488 11.0208 6.89509 10.8858 6.90205C10.7508 6.90902 10.6156 6.89259 10.4879 6.85373C10.3601 6.81486 10.2424 6.75431 10.1413 6.67552C9.55429 6.21834 8.79028 5.97511 8.00554 5.9956C7.22081 6.01609 6.47465 6.29875 5.91971 6.78576L3.85894 8.59149C3.28154 9.09785 2.95717 9.78462 2.95717 10.5007C2.95717 11.2168 3.28154 11.9036 3.85894 12.4099C4.43633 12.9163 5.21944 13.2008 6.036 13.2008C6.85256 13.2008 7.63567 12.9163 8.21306 12.4099L8.72098 11.9645C8.81628 11.8808 8.92945 11.8145 9.05402 11.7692C9.17859 11.7239 9.31211 11.7006 9.44696 11.7006C9.5818 11.7006 9.71533 11.7239 9.8399 11.7692C9.96446 11.8145 10.0776 11.8808 10.1729 11.9645ZM16.5074 1.31606C15.5442 0.473293 14.2391 0 12.8784 0C11.5178 0 10.2127 0.473293 9.24943 1.31606L8.74151 1.76149C8.54874 1.93054 8.44045 2.15982 8.44045 2.3989C8.44045 2.63797 8.54874 2.86725 8.74151 3.0363C8.93427 3.20536 9.19572 3.30033 9.46833 3.30033C9.74095 3.30033 10.0024 3.20536 10.1952 3.0363L10.7031 2.59087C11.2805 2.08451 12.0636 1.80004 12.8801 1.80004C13.6967 1.80004 14.4798 2.08451 15.0572 2.59087C15.6346 3.09723 15.959 3.78399 15.959 4.50009C15.959 5.21619 15.6346 5.90296 15.0572 6.40931L12.9956 8.21805C12.4402 8.70485 11.6936 8.9871 10.9086 9.00703C10.1237 9.02697 9.35977 8.78308 8.77315 8.32528C8.67208 8.2465 8.55431 8.18595 8.42657 8.14708C8.29882 8.10821 8.16359 8.09179 8.02861 8.09876C7.89362 8.10572 7.76153 8.13593 7.63985 8.18766C7.51818 8.2394 7.40932 8.31164 7.31949 8.40027C7.22966 8.4889 7.16061 8.59218 7.11629 8.70421C7.07197 8.81624 7.05324 8.93483 7.06118 9.05321C7.06912 9.17159 7.10357 9.28743 7.16256 9.39414C7.22156 9.50084 7.30394 9.5963 7.405 9.67509C8.38321 10.4376 9.65674 10.8435 10.965 10.8096C12.2732 10.7757 13.5172 10.3047 14.4424 9.49286L16.5049 7.68488C17.467 6.84033 18.0076 5.69548 18.0081 4.50168C18.0086 3.30788 17.4689 2.16269 16.5074 1.31756V1.31606Z" fill="#979797"/>
</svg>
